<svg t="1576917251754" class="icon" viewBox="0 0 1024 1024" version="1.1" xmlns="http://www.w3.org/2000/svg" p-id="4356" width="200" height="200"><path d="M824.106667 821.333333H199.893333L160 779.946667V382.506667a53.973333 53.973333 0 0 1 46.933333-54.4l113.066667-38.826667 30.72-58.026667a52.906667 52.906667 0 0 1 45.866667-28.586666h230.826666a52.693333 52.693333 0 0 1 46.72 28.8l29.866667 57.813333 112.213333 38.826667a53.973333 53.973333 0 0 1 46.933334 54.4v397.44z m-615.04-21.333333h605.866666l27.733334-28.8V382.506667a33.066667 33.066667 0 0 0-29.013334-33.28h-2.346666l-121.386667-42.666667-34.56-65.493333a31.786667 31.786667 0 0 0-27.946667-17.28H396.586667a31.786667 31.786667 0 0 0-27.946667 17.28l-34.56 65.493333-123.733333 42.666667a33.066667 33.066667 0 0 0-29.013334 33.28v388.693333z" p-id="4357"></path><path d="M618.666667 507.733333a108.16 108.16 0 0 0-207.146667 0l-34.346667-10.24a144 144 0 0 1 276.053334 0zM514.773333 682.666667a143.146667 143.146667 0 0 1-138.026666-102.826667l34.346666-10.24a108.16 108.16 0 0 0 207.146667 0l34.56 10.24A143.146667 143.146667 0 0 1 514.773333 682.666667z" p-id="4358"></path><path d="M638.08 531.626667l-52.053333-14.08 9.173333-34.773334 34.773333 9.386667 10.026667-34.773333 34.773333 9.386666-14.08 52.053334a17.92 17.92 0 0 1-22.613333 12.8z" p-id="4359"></path><path d="M656.64 462.08m-17.92 0a17.92 17.92 0 1 0 35.84 0 17.92 17.92 0 1 0-35.84 0Z" p-id="4360"></path><path d="M590.506667 500.266667m-17.92 0a17.92 17.92 0 1 0 35.84 0 17.92 17.92 0 1 0-35.84 0Z" p-id="4361"></path><path d="M393.173333 534.613333l52.266667 14.08-9.386667 34.773334-34.773333-9.386667-9.386667 34.773333-34.773333-9.173333 14.08-52.266667a17.92 17.92 0 0 1 21.973333-12.8z" p-id="4362"></path><path d="M374.613333 604.16m-17.92 0a17.92 17.92 0 1 0 35.84 0 17.92 17.92 0 1 0-35.84 0Z" p-id="4363"></path><path d="M440.746667 565.973333m-17.92 0a17.92 17.92 0 1 0 35.84 0 17.92 17.92 0 1 0-35.84 0Z" p-id="4364"></path></svg>